<!--?xml version="1.0" standalone="no"?-->
              <svg id="sw-js-blob-svg" viewBox="0 0 100 100" xmlns="http://www.w3.org/2000/svg" version="1.1">
                    <defs> 
                        <linearGradient id="sw-gradient" x1="0" x2="1" y1="1" y2="0">
                            <stop id="stop1" stop-color="rgba(182, 208, 226, 1)" offset="0%"></stop>
                            <stop id="stop2" stop-color="rgba(182, 208, 226, 1)" offset="100%"></stop>
                        </linearGradient>
                    </defs>
                <path fill="url(#sw-gradient)" d="M26.6,-30.1C33.4,-26.1,36.9,-16.6,38.6,-6.8C40.3,2.9,40.1,13,35.5,20.2C31,27.4,22,31.7,12.7,35.3C3.3,38.8,-6.4,41.7,-13.8,38.7C-21.2,35.7,-26.1,26.8,-30.6,18.1C-35,9.5,-38.9,1,-39,-8.4C-39.2,-17.7,-35.6,-27.9,-28.5,-31.9C-21.3,-35.9,-10.7,-33.7,-0.4,-33.3C9.9,-32.8,19.9,-34.2,26.6,-30.1Z" width="100%" height="100%" transform="translate(50 50)" stroke-width="0" style="transition: all 0.3s ease 0s;" stroke="url(#sw-gradient)"></path>
              </svg>